<svg width="512" height="155" viewBox="0 0 512 155" fill="none" xmlns="http://www.w3.org/2000/svg">
<g clip-path="url(#clip0_3037_70284)">
<path d="M200.682 74.9284C204.533 72.7411 207.619 70.0177 209.865 66.8064C212.425 63.1502 213.725 58.974 213.725 54.4011C213.725 45.8396 210.524 39.1571 204.217 34.5359C197.985 29.9683 189.41 27.655 178.723 27.655H140.078V126.826H180.267C191.522 126.826 200.534 124.209 207.05 119.044C213.618 113.836 216.952 106.542 216.952 97.3615C216.952 91.7726 215.384 86.9638 212.296 83.0717C209.525 79.5924 205.624 76.8556 200.684 74.9284H200.682ZM160.991 45.5286H177.042C182.076 45.5286 185.877 46.5043 188.346 48.4236C190.785 50.3187 191.97 52.8089 191.97 56.0335C191.97 59.2581 190.785 61.8743 188.346 63.7775C185.877 65.6967 182.076 66.6724 177.042 66.6724H160.991V45.5286ZM191.209 105.591C188.426 107.821 184.178 108.949 178.584 108.949H160.991V84.68H178.584C184.175 84.68 188.429 85.771 191.222 87.9127C193.991 90.0491 195.337 92.8689 195.337 96.5439C195.337 100.409 193.986 103.368 191.209 105.593V105.591Z" fill="#0D0E0E"/>
<path d="M245.205 52.6685H224.152V126.822H245.205V52.6685Z" fill="#0D0E0E"/>
<path d="M453.137 63.8195C449.805 59.8523 445.629 56.7429 440.724 54.5744C435.824 52.4086 430.313 51.3042 424.351 51.3042C417.044 51.3042 410.453 52.9634 404.754 56.2336C399.042 59.5146 394.509 64.0714 391.277 69.7863C388.044 75.4957 386.406 82.1219 386.406 89.4745C386.406 96.8272 387.996 103.89 391.129 109.688C394.271 115.505 398.787 120.067 404.551 123.26C410.303 126.433 417.06 128.044 424.633 128.044C433.929 128.044 441.82 125.707 448.093 121.094C454.134 116.655 458.289 110.393 460.552 102.555H439.357C438.242 105.222 436.671 107.493 434.422 109.093C431.763 110.98 428.329 111.937 424.212 111.937C420.642 111.937 417.583 111.069 415.12 109.359C412.646 107.648 410.756 105.121 409.515 101.837C408.77 99.8856 408.242 97.642 407.931 95.1465H460.922L461.026 94.4871C461.972 88.5069 461.734 82.8403 460.308 77.6455C458.879 72.4373 456.467 67.7866 453.137 63.8195ZM408.266 81.417C408.59 79.9078 409.027 78.3371 409.582 76.9057C410.874 73.5792 412.739 71.0193 415.13 69.3091C417.511 67.599 420.473 66.7359 423.936 66.7359C428.276 66.7359 431.838 68.1431 434.524 70.9121C437.07 73.547 438.515 77.1469 438.823 81.417H408.268H408.266Z" fill="#0D0E0E"/>
<path d="M245.635 27.6521H223.703V45.5257H245.635V27.6521Z" fill="#0D0E0E"/>
<path d="M360.93 61.08C358.44 58.0886 355.521 55.7699 352.229 54.167C348.3 52.2665 343.702 51.3042 338.564 51.3042C332.273 51.3042 326.633 52.8562 321.808 55.912C316.989 58.9651 313.166 63.2807 310.451 68.7301C307.746 74.1662 306.371 80.5485 306.371 87.7081C306.371 94.8677 307.816 100.875 310.668 106.348C313.525 111.841 317.487 116.215 322.441 119.357C327.405 122.506 333.066 124.104 339.269 124.104C343.952 124.104 348.23 123.091 351.977 121.088C354.944 119.504 357.429 117.408 359.389 114.848V122.922C359.389 127.926 358.073 131.768 355.486 134.327C352.891 136.887 348.946 138.179 343.756 138.179C339.285 138.179 335.768 137.166 333.307 135.164C331.294 133.526 329.536 131.376 329.126 126.825H308.829C309.017 133.194 310.888 137.485 313.528 141.246C316.49 145.46 320.656 148.754 325.92 151.03C331.134 153.279 337.183 154.42 343.898 154.42C355.17 154.42 364.144 151.587 370.564 146.006C377.024 140.393 380.299 132.534 380.299 122.651V52.6659H360.93V61.08ZM357.223 97.5589C355.888 100.314 354.004 102.475 351.615 103.971C349.23 105.466 346.351 106.228 343.054 106.228C338.288 106.228 334.583 104.606 331.721 101.266C328.869 97.9449 327.424 93.3827 327.424 87.7054C327.424 82.0281 328.869 77.4659 331.721 74.1394C334.546 70.8451 338.36 69.1778 343.054 69.1778C347.747 69.1778 351.894 70.8692 354.81 74.2144C357.754 77.5865 359.247 82.1729 359.247 87.8368C359.247 91.5064 358.566 94.7739 357.223 97.5563V97.5589Z" fill="#0D0E0E"/>
<path d="M512.002 70.4034V52.6692H496.806V27.6521H475.893V52.6692H462.914V70.4034H475.893V99.4333C475.893 115.573 479.072 127.434 498.889 127.067L511.329 126.823V110.195H505.156C496.348 110.195 496.839 105.06 496.839 95.5224L496.804 70.4034H511.999H512.002Z" fill="#0D0E0E"/>
<path d="M301.256 70.4034V52.6692H286.06V27.6521H265.147V52.6692H252.168V70.4034H265.147V99.4333C265.147 115.573 268.326 127.434 288.143 127.067L300.583 126.823V110.195H294.41C285.602 110.195 286.092 105.06 286.092 95.5224L286.058 70.4034H301.253H301.256Z" fill="#0D0E0E"/>
<path d="M52.4882 45.5273H84.0671L116.373 77.6263C118.474 79.7145 118.485 83.1107 116.394 85.2095L74.9642 126.848H42.4336L52.2684 117.287L88.3774 81.4059L52.7267 45.5247" fill="#0D0E0E"/>
<path d="M65.4673 81.3257H33.8883L1.58286 49.2267C-0.518654 47.1386 -0.529376 43.7424 1.56142 41.6435L42.9912 0.00195312H75.5218L65.6871 9.5633L29.578 45.4445L65.2287 81.3257" fill="#0D0E0E"/>
</g>
<defs>
<clipPath id="clip0_3037_70284">
<rect width="512" height="154.416" fill="white"/>
</clipPath>
</defs>
</svg>
